<svg width="164" height="45" viewBox="0 0 164 45" fill="none" xmlns="http://www.w3.org/2000/svg">
<rect width="164" height="45" fill="#00868A"/>
<path d="M33.176 28H31.58L27.352 23.296V28H26.05V18.2H27.352V22.624L31.44 18.2H33.036L28.71 22.96L33.176 28ZM41.6669 28L40.8689 25.802H36.4589L35.6609 28H34.2749L37.9289 18.2H39.3989L43.0529 28H41.6669ZM36.9069 24.584H40.4209L38.6569 19.754L36.9069 24.584ZM52.035 28H50.439L46.211 23.296V28H44.909V18.2H46.211V22.624L50.299 18.2H51.895L47.569 22.96L52.035 28ZM65.2061 18.2V28H63.9041V19.432H59.3961V28H58.0941V18.2H65.2061ZM71.565 18.2C72.4703 18.2 73.2217 18.5033 73.819 19.11C74.4257 19.7073 74.729 20.454 74.729 21.35C74.729 22.2367 74.4257 22.9833 73.819 23.59C73.2217 24.1967 72.4703 24.5 71.565 24.5H69.311V28H68.009V18.2H71.565ZM71.565 23.282C72.1063 23.282 72.5543 23.1 72.909 22.736C73.2637 22.3627 73.441 21.9007 73.441 21.35C73.441 20.79 73.2637 20.328 72.909 19.964C72.5543 19.6 72.1063 19.418 71.565 19.418H69.311V23.282H71.565ZM85.0464 26.698C84.0664 27.6873 82.8671 28.182 81.4484 28.182C80.0298 28.182 78.8304 27.6873 77.8504 26.698C76.8704 25.7087 76.3804 24.5093 76.3804 23.1C76.3804 21.6813 76.8704 20.482 77.8504 19.502C78.8304 18.5127 80.0298 18.018 81.4484 18.018C82.8671 18.018 84.0664 18.5127 85.0464 19.502C86.0358 20.482 86.5304 21.6813 86.5304 23.1C86.5304 24.5093 86.0358 25.7087 85.0464 26.698ZM78.7464 25.816C79.4744 26.544 80.3751 26.908 81.4484 26.908C82.5218 26.908 83.4178 26.544 84.1364 25.816C84.8644 25.0787 85.2284 24.1733 85.2284 23.1C85.2284 22.0173 84.8644 21.112 84.1364 20.384C83.4178 19.6467 82.5218 19.278 81.4484 19.278C80.3751 19.278 79.4744 19.6467 78.7464 20.384C78.0278 21.112 77.6684 22.0173 77.6684 23.1C77.6684 24.1733 78.0278 25.0787 78.7464 25.816ZM90.0977 26.768H94.6477V28H88.7957V18.2H94.5777V19.432H90.0977V22.442H94.2277V23.66H90.0977V26.768ZM103.892 28H102.408L99.9995 24.136L97.5915 28H96.1215L99.2715 22.96L96.3035 18.2H97.7735L99.9995 21.77L102.226 18.2H103.696L100.742 22.946L103.892 28ZM112.331 28L111.533 25.802H107.123L106.325 28H104.939L108.593 18.2H110.063L113.717 28H112.331ZM107.571 24.584H111.085L109.321 19.754L107.571 24.584ZM121.135 18.2V19.432H118.237V28H116.949V19.432H114.065V18.2H121.135ZM126.679 21.7C127.584 21.7 128.336 22.0033 128.933 22.61C129.54 23.2167 129.843 23.9633 129.843 24.85C129.843 25.746 129.54 26.4973 128.933 27.104C128.336 27.7013 127.584 28 126.679 28H123.123V18.2H124.425V21.7H126.679ZM126.679 26.782C127.22 26.782 127.668 26.6 128.023 26.236C128.378 25.872 128.555 25.41 128.555 24.85C128.555 24.2993 128.378 23.842 128.023 23.478C127.668 23.1047 127.22 22.918 126.679 22.918H124.425V26.782H126.679ZM133.901 25.13C133.901 24.7193 133.99 24.3367 134.167 23.982C134.344 23.6273 134.559 23.324 134.811 23.072C135.063 22.82 135.315 22.582 135.567 22.358C135.819 22.1247 136.034 21.8727 136.211 21.602C136.388 21.322 136.477 21.028 136.477 20.72C136.477 20.2533 136.314 19.8987 135.987 19.656C135.67 19.404 135.254 19.278 134.741 19.278C133.714 19.278 133.056 19.7307 132.767 20.636L131.661 20.02C131.894 19.3667 132.291 18.872 132.851 18.536C133.411 18.1907 134.046 18.018 134.755 18.018C135.586 18.018 136.295 18.2513 136.883 18.718C137.48 19.1847 137.779 19.8333 137.779 20.664C137.779 21.056 137.69 21.4247 137.513 21.77C137.336 22.1153 137.121 22.414 136.869 22.666C136.617 22.918 136.365 23.1653 136.113 23.408C135.861 23.6413 135.646 23.9073 135.469 24.206C135.292 24.4953 135.203 24.8033 135.203 25.13H133.901ZM134.545 28.154C134.293 28.154 134.078 28.0653 133.901 27.888C133.724 27.7107 133.635 27.496 133.635 27.244C133.635 26.992 133.724 26.7773 133.901 26.6C134.078 26.4227 134.293 26.334 134.545 26.334C134.806 26.334 135.021 26.4227 135.189 26.6C135.366 26.7773 135.455 26.992 135.455 27.244C135.455 27.496 135.366 27.7107 135.189 27.888C135.021 28.0653 134.806 28.154 134.545 28.154Z" fill="white"/>
</svg>
