<svg width="148" height="40" viewBox="0 0 148 40" fill="none" xmlns="http://www.w3.org/2000/svg">
<rect width="148" height="40" fill="#4FBFA5"/>
<path d="M25.512 26H23.46L18.024 19.952V26H16.35V13.4H18.024V19.088L23.28 13.4H25.332L19.77 19.52L25.512 26ZM33.6278 24.866C32.7038 25.778 31.5818 26.234 30.2618 26.234C28.9418 26.234 27.8198 25.778 26.8958 24.866C25.9838 23.954 25.5278 22.832 25.5278 21.5C25.5278 20.168 25.9838 19.046 26.8958 18.134C27.8198 17.222 28.9418 16.766 30.2618 16.766C31.5818 16.766 32.7038 17.222 33.6278 18.134C34.5518 19.046 35.0137 20.168 35.0137 21.5C35.0137 22.832 34.5518 23.954 33.6278 24.866ZM30.2618 24.704C31.1618 24.704 31.9178 24.398 32.5298 23.786C33.1418 23.174 33.4478 22.412 33.4478 21.5C33.4478 20.588 33.1418 19.826 32.5298 19.214C31.9178 18.602 31.1618 18.296 30.2618 18.296C29.3738 18.296 28.6238 18.602 28.0118 19.214C27.3998 19.826 27.0938 20.588 27.0938 21.5C27.0938 22.412 27.3998 23.174 28.0118 23.786C28.6238 24.398 29.3738 24.704 30.2618 24.704ZM41.0899 26.234C39.7339 26.234 38.6059 25.784 37.7059 24.884C36.8059 23.972 36.3559 22.844 36.3559 21.5C36.3559 20.156 36.8059 19.034 37.7059 18.134C38.6059 17.222 39.7339 16.766 41.0899 16.766C41.9779 16.766 42.7759 16.982 43.4839 17.414C44.1919 17.834 44.7199 18.404 45.0679 19.124L43.7539 19.88C43.5259 19.4 43.1719 19.016 42.6919 18.728C42.2239 18.44 41.6899 18.296 41.0899 18.296C40.1899 18.296 39.4339 18.602 38.8219 19.214C38.2219 19.826 37.9219 20.588 37.9219 21.5C37.9219 22.4 38.2219 23.156 38.8219 23.768C39.4339 24.38 40.1899 24.686 41.0899 24.686C41.6899 24.686 42.2299 24.548 42.7099 24.272C43.1899 23.984 43.5559 23.6 43.8079 23.12L45.1399 23.894C44.7559 24.602 44.2039 25.172 43.4839 25.604C42.7639 26.024 41.9659 26.234 41.0899 26.234ZM55.7036 17V26H54.1736V19.466L51.3116 24.074H51.1136L48.2516 19.466V26H46.7036V17H48.3776L51.2036 21.554L54.0296 17H55.7036ZM59.1923 22.22C59.3483 23.024 59.7143 23.648 60.2903 24.092C60.8783 24.536 61.5983 24.758 62.4503 24.758C63.6383 24.758 64.5023 24.32 65.0423 23.444L66.3743 24.2C65.4983 25.556 64.1783 26.234 62.4143 26.234C60.9863 26.234 59.8223 25.79 58.9223 24.902C58.0343 24.002 57.5903 22.868 57.5903 21.5C57.5903 20.144 58.0283 19.016 58.9043 18.116C59.7803 17.216 60.9143 16.766 62.3063 16.766C63.6263 16.766 64.7003 17.234 65.5283 18.17C66.3683 19.094 66.7883 20.21 66.7883 21.518C66.7883 21.746 66.7703 21.98 66.7343 22.22H59.1923ZM62.3063 18.242C61.4663 18.242 60.7703 18.482 60.2183 18.962C59.6663 19.43 59.3243 20.06 59.1923 20.852H65.2043C65.0723 20 64.7363 19.352 64.1963 18.908C63.6563 18.464 63.0263 18.242 62.3063 18.242ZM74.9328 17V18.512H71.8728V26H70.3068V18.512H67.2288V17H74.9328ZM83.5496 24.866C82.6256 25.778 81.5036 26.234 80.1836 26.234C78.8636 26.234 77.7416 25.778 76.8176 24.866C75.9056 23.954 75.4496 22.832 75.4496 21.5C75.4496 20.168 75.9056 19.046 76.8176 18.134C77.7416 17.222 78.8636 16.766 80.1836 16.766C81.5036 16.766 82.6256 17.222 83.5496 18.134C84.4736 19.046 84.9356 20.168 84.9356 21.5C84.9356 22.832 84.4736 23.954 83.5496 24.866ZM80.1836 24.704C81.0836 24.704 81.8396 24.398 82.4516 23.786C83.0636 23.174 83.3696 22.412 83.3696 21.5C83.3696 20.588 83.0636 19.826 82.4516 19.214C81.8396 18.602 81.0836 18.296 80.1836 18.296C79.2956 18.296 78.5456 18.602 77.9336 19.214C77.3216 19.826 77.0156 20.588 77.0156 21.5C77.0156 22.412 77.3216 23.174 77.9336 23.786C78.5456 24.398 79.2956 24.704 80.1836 24.704ZM93.9713 17V26H92.4053V18.512H88.8593V22.184C88.8593 23.66 88.5593 24.692 87.9593 25.28C87.3713 25.856 86.5373 26.096 85.4573 26V24.524C86.0693 24.608 86.5253 24.476 86.8253 24.128C87.1373 23.768 87.2933 23.108 87.2933 22.148V17H93.9713ZM103.94 24.866C103.016 25.778 101.894 26.234 100.574 26.234C99.2543 26.234 98.1323 25.778 97.2083 24.866C96.2963 23.954 95.8403 22.832 95.8403 21.5C95.8403 20.168 96.2963 19.046 97.2083 18.134C98.1323 17.222 99.2543 16.766 100.574 16.766C101.894 16.766 103.016 17.222 103.94 18.134C104.864 19.046 105.326 20.168 105.326 21.5C105.326 22.832 104.864 23.954 103.94 24.866ZM100.574 24.704C101.474 24.704 102.23 24.398 102.842 23.786C103.454 23.174 103.76 22.412 103.76 21.5C103.76 20.588 103.454 19.826 102.842 19.214C102.23 18.602 101.474 18.296 100.574 18.296C99.6863 18.296 98.9363 18.602 98.3243 19.214C97.7123 19.826 97.4062 20.588 97.4062 21.5C97.4062 22.412 97.7123 23.174 98.3243 23.786C98.9363 24.398 99.6863 24.704 100.574 24.704ZM113.076 17V18.512H108.738V26H107.172V17H113.076ZM120.984 17H122.244V26H120.696V19.682L115.71 26H114.45V17H115.998V23.318L120.984 17ZM131.359 17V26H129.811V22.76H128.497L125.977 26H124.069L126.697 22.67C126.025 22.502 125.479 22.166 125.059 21.662C124.639 21.158 124.429 20.57 124.429 19.898C124.429 19.07 124.723 18.38 125.311 17.828C125.899 17.276 126.637 17 127.525 17H131.359ZM127.579 21.356H129.811V18.458H127.579C127.135 18.458 126.757 18.59 126.445 18.854C126.133 19.118 125.977 19.472 125.977 19.916C125.977 20.348 126.133 20.696 126.445 20.96C126.757 21.224 127.135 21.356 127.579 21.356Z" fill="white"/>
</svg>
