<svg width="186" height="40" viewBox="0 0 186 40" fill="none" xmlns="http://www.w3.org/2000/svg">
<rect width="186" height="40" fill="#4FBFA5"/>
<path d="M21.03 13.166C22.926 13.166 24.486 13.796 25.71 15.056C26.934 16.304 27.546 17.852 27.546 19.7C27.546 21.536 26.934 23.084 25.71 24.344C24.486 25.604 22.926 26.234 21.03 26.234C19.866 26.234 18.798 25.958 17.826 25.406C16.854 24.842 16.11 24.092 15.594 23.156L17.052 22.328C17.4 23.012 17.934 23.564 18.654 23.984C19.374 24.392 20.166 24.596 21.03 24.596C22.338 24.596 23.424 24.212 24.288 23.444C25.152 22.676 25.668 21.686 25.836 20.474H19.356V18.908H25.836C25.668 17.696 25.152 16.706 24.288 15.938C23.424 15.17 22.338 14.786 21.03 14.786C20.166 14.786 19.374 14.996 18.654 15.416C17.946 15.824 17.412 16.376 17.052 17.072L15.594 16.226C16.122 15.29 16.872 14.546 17.844 13.994C18.816 13.442 19.878 13.166 21.03 13.166ZM33.6543 26.234C32.2983 26.234 31.1703 25.784 30.2703 24.884C29.3703 23.972 28.9203 22.844 28.9203 21.5C28.9203 20.156 29.3703 19.034 30.2703 18.134C31.1703 17.222 32.2983 16.766 33.6543 16.766C34.5423 16.766 35.3403 16.982 36.0483 17.414C36.7563 17.834 37.2843 18.404 37.6323 19.124L36.3183 19.88C36.0903 19.4 35.7363 19.016 35.2563 18.728C34.7883 18.44 34.2543 18.296 33.6543 18.296C32.7543 18.296 31.9983 18.602 31.3863 19.214C30.7863 19.826 30.4863 20.588 30.4863 21.5C30.4863 22.4 30.7863 23.156 31.3863 23.768C31.9983 24.38 32.7543 24.686 33.6543 24.686C34.2543 24.686 34.7943 24.548 35.2743 24.272C35.7543 23.984 36.1203 23.6 36.3723 23.12L37.7043 23.894C37.3203 24.602 36.7683 25.172 36.0483 25.604C35.3283 26.024 34.5303 26.234 33.6543 26.234ZM45.8059 17V18.512H42.7459V26H41.1799V18.512H38.1019V17H45.8059ZM47.9247 22.22C48.0807 23.024 48.4467 23.648 49.0227 24.092C49.6107 24.536 50.3307 24.758 51.1827 24.758C52.3707 24.758 53.2347 24.32 53.7747 23.444L55.1067 24.2C54.2307 25.556 52.9107 26.234 51.1467 26.234C49.7187 26.234 48.5547 25.79 47.6547 24.902C46.7667 24.002 46.3227 22.868 46.3227 21.5C46.3227 20.144 46.7607 19.016 47.6367 18.116C48.5127 17.216 49.6467 16.766 51.0387 16.766C52.3587 16.766 53.4327 17.234 54.2607 18.17C55.1007 19.094 55.5207 20.21 55.5207 21.518C55.5207 21.746 55.5027 21.98 55.4667 22.22H47.9247ZM51.0387 18.242C50.1987 18.242 49.5027 18.482 48.9507 18.962C48.3987 19.43 48.0567 20.06 47.9247 20.852H53.9367C53.8047 20 53.4687 19.352 52.9287 18.908C52.3887 18.464 51.7587 18.242 51.0387 18.242ZM63.6653 17V18.512H60.6053V26H59.0393V18.512H55.9613V17H63.6653ZM71.5716 17H72.8316V26H71.2836V19.682L66.2976 26H65.0376V17H66.5856V23.318L71.5716 17ZM82.8293 26H80.8853L76.7813 21.734V26H75.2153V17H76.7813V20.978L80.6693 17H82.6853L78.3833 21.356L82.8293 26ZM90.9115 17H92.4775V26H90.9115V24.452C90.1315 25.64 88.9975 26.234 87.5095 26.234C86.2495 26.234 85.1755 25.778 84.2875 24.866C83.3995 23.942 82.9555 22.82 82.9555 21.5C82.9555 20.18 83.3995 19.064 84.2875 18.152C85.1755 17.228 86.2495 16.766 87.5095 16.766C88.9975 16.766 90.1315 17.36 90.9115 18.548V17ZM87.7075 24.722C88.6195 24.722 89.3815 24.416 89.9935 23.804C90.6055 23.18 90.9115 22.412 90.9115 21.5C90.9115 20.588 90.6055 19.826 89.9935 19.214C89.3815 18.59 88.6195 18.278 87.7075 18.278C86.8075 18.278 86.0515 18.59 85.4395 19.214C84.8275 19.826 84.5215 20.588 84.5215 21.5C84.5215 22.412 84.8275 23.18 85.4395 23.804C86.0515 24.416 86.8075 24.722 87.7075 24.722ZM106.964 26H105.02L100.916 21.734V26H99.3501V17H100.916V20.978L104.804 17H106.82L102.518 21.356L106.964 26ZM113.388 16.766C114.648 16.766 115.722 17.228 116.61 18.152C117.498 19.064 117.942 20.18 117.942 21.5C117.942 22.82 117.498 23.942 116.61 24.866C115.722 25.778 114.648 26.234 113.388 26.234C111.9 26.234 110.766 25.64 109.986 24.452V29.6H108.42V17H109.986V18.548C110.766 17.36 111.9 16.766 113.388 16.766ZM113.19 24.722C114.09 24.722 114.846 24.416 115.458 23.804C116.07 23.18 116.376 22.412 116.376 21.5C116.376 20.588 116.07 19.826 115.458 19.214C114.846 18.59 114.09 18.278 113.19 18.278C112.278 18.278 111.516 18.59 110.904 19.214C110.292 19.826 109.986 20.588 109.986 21.5C109.986 22.412 110.292 23.18 110.904 23.804C111.516 24.416 112.278 24.722 113.19 24.722ZM127.263 17H128.829V26H127.263V24.452C126.483 25.64 125.349 26.234 123.861 26.234C122.601 26.234 121.527 25.778 120.639 24.866C119.751 23.942 119.307 22.82 119.307 21.5C119.307 20.18 119.751 19.064 120.639 18.152C121.527 17.228 122.601 16.766 123.861 16.766C125.349 16.766 126.483 17.36 127.263 18.548V17ZM124.059 24.722C124.971 24.722 125.733 24.416 126.345 23.804C126.957 23.18 127.263 22.412 127.263 21.5C127.263 20.588 126.957 19.826 126.345 19.214C125.733 18.59 124.971 18.278 124.059 18.278C123.159 18.278 122.403 18.59 121.791 19.214C121.179 19.826 120.873 20.588 120.873 21.5C120.873 22.412 121.179 23.18 121.791 23.804C122.403 24.416 123.159 24.722 124.059 24.722ZM135.432 26.234C134.076 26.234 132.948 25.784 132.048 24.884C131.148 23.972 130.698 22.844 130.698 21.5C130.698 20.156 131.148 19.034 132.048 18.134C132.948 17.222 134.076 16.766 135.432 16.766C136.32 16.766 137.118 16.982 137.826 17.414C138.534 17.834 139.062 18.404 139.41 19.124L138.096 19.88C137.868 19.4 137.514 19.016 137.034 18.728C136.566 18.44 136.032 18.296 135.432 18.296C134.532 18.296 133.776 18.602 133.164 19.214C132.564 19.826 132.264 20.588 132.264 21.5C132.264 22.4 132.564 23.156 133.164 23.768C133.776 24.38 134.532 24.686 135.432 24.686C136.032 24.686 136.572 24.548 137.052 24.272C137.532 23.984 137.898 23.6 138.15 23.12L139.482 23.894C139.098 24.602 138.546 25.172 137.826 25.604C137.106 26.024 136.308 26.234 135.432 26.234ZM148.501 24.866C147.577 25.778 146.455 26.234 145.135 26.234C143.815 26.234 142.693 25.778 141.769 24.866C140.857 23.954 140.401 22.832 140.401 21.5C140.401 20.168 140.857 19.046 141.769 18.134C142.693 17.222 143.815 16.766 145.135 16.766C146.455 16.766 147.577 17.222 148.501 18.134C149.425 19.046 149.887 20.168 149.887 21.5C149.887 22.832 149.425 23.954 148.501 24.866ZM145.135 24.704C146.035 24.704 146.791 24.398 147.403 23.786C148.015 23.174 148.321 22.412 148.321 21.5C148.321 20.588 148.015 19.826 147.403 19.214C146.791 18.602 146.035 18.296 145.135 18.296C144.247 18.296 143.497 18.602 142.885 19.214C142.273 19.826 141.967 20.588 141.967 21.5C141.967 22.412 142.273 23.174 142.885 23.786C143.497 24.398 144.247 24.704 145.135 24.704ZM158.077 17V18.512H155.017V26H153.451V18.512H150.373V17H158.077ZM163.248 20.24C164.148 20.24 164.892 20.51 165.48 21.05C166.08 21.578 166.38 22.268 166.38 23.12C166.38 23.972 166.08 24.668 165.48 25.208C164.892 25.736 164.148 26 163.248 26H159.45V17H161.016V20.24H163.248ZM167.55 17H169.116V26H167.55V17ZM163.248 24.542C163.692 24.542 164.064 24.416 164.364 24.164C164.676 23.9 164.832 23.552 164.832 23.12C164.832 22.688 164.676 22.34 164.364 22.076C164.064 21.812 163.692 21.68 163.248 21.68H161.016V24.542H163.248Z" fill="white"/>
</svg>
