<svg width="125" height="40" viewBox="0 0 125 40" fill="none" xmlns="http://www.w3.org/2000/svg">
<rect width="125" height="40" fill="#4FBFA5"/>
<path d="M24.18 26V16.604L17.7 26H16.35V13.4H18.024V22.814L24.504 13.4H25.854V26H24.18ZM34.6152 17H36.1812V26H34.6152V22.238H29.9532V26H28.3872V17H29.9532V20.744H34.6152V17ZM44.793 17H46.359V26H44.793V22.238H40.131V26H38.565V17H40.131V20.744H44.793V17ZM56.3387 24.866C55.4147 25.778 54.2927 26.234 52.9727 26.234C51.6527 26.234 50.5307 25.778 49.6067 24.866C48.6947 23.954 48.2387 22.832 48.2387 21.5C48.2387 20.168 48.6947 19.046 49.6067 18.134C50.5307 17.222 51.6527 16.766 52.9727 16.766C54.2927 16.766 55.4147 17.222 56.3387 18.134C57.2627 19.046 57.7247 20.168 57.7247 21.5C57.7247 22.832 57.2627 23.954 56.3387 24.866ZM52.9727 24.704C53.8727 24.704 54.6287 24.398 55.2407 23.786C55.8527 23.174 56.1587 22.412 56.1587 21.5C56.1587 20.588 55.8527 19.826 55.2407 19.214C54.6287 18.602 53.8727 18.296 52.9727 18.296C52.0847 18.296 51.3347 18.602 50.7227 19.214C50.1107 19.826 49.8047 20.588 49.8047 21.5C49.8047 22.412 50.1107 23.174 50.7227 23.786C51.3347 24.398 52.0847 24.704 52.9727 24.704ZM65.5648 21.374C66.4888 21.758 66.9508 22.454 66.9508 23.462C66.9508 24.206 66.6988 24.818 66.1948 25.298C65.7028 25.766 64.9948 26 64.0708 26H59.5708V17H63.7108C64.6108 17 65.3068 17.228 65.7988 17.684C66.2908 18.128 66.5368 18.716 66.5368 19.448C66.5368 20.312 66.2128 20.954 65.5648 21.374ZM63.6388 18.404H61.1008V20.762H63.6388C64.5508 20.762 65.0068 20.36 65.0068 19.556C65.0068 18.788 64.5508 18.404 63.6388 18.404ZM63.9808 24.578C64.4368 24.578 64.7848 24.47 65.0248 24.254C65.2768 24.038 65.4028 23.732 65.4028 23.336C65.4028 22.964 65.2768 22.676 65.0248 22.472C64.7848 22.256 64.4368 22.148 63.9808 22.148H61.1008V24.578H63.9808ZM76.0931 17H77.6591V26H76.0931V24.452C75.3131 25.64 74.1791 26.234 72.6911 26.234C71.4311 26.234 70.3571 25.778 69.4691 24.866C68.5811 23.942 68.1371 22.82 68.1371 21.5C68.1371 20.18 68.5811 19.064 69.4691 18.152C70.3571 17.228 71.4311 16.766 72.6911 16.766C74.1791 16.766 75.3131 17.36 76.0931 18.548V17ZM72.8891 24.722C73.8011 24.722 74.5631 24.416 75.1751 23.804C75.7871 23.18 76.0931 22.412 76.0931 21.5C76.0931 20.588 75.7871 19.826 75.1751 19.214C74.5631 18.59 73.8011 18.278 72.8891 18.278C71.9891 18.278 71.2331 18.59 70.6211 19.214C70.0091 19.826 69.7031 20.588 69.7031 21.5C69.7031 22.412 70.0091 23.18 70.6211 23.804C71.2331 24.416 71.9891 24.722 72.8891 24.722ZM87.5918 24.506H89.0678V28.412H87.5198V26H80.0317V17H81.5978V24.506H86.0258V17H87.5918V24.506ZM97.2708 17H98.5308V26H96.9828V19.682L91.9968 26H90.7368V17H92.2848V23.318L97.2708 17ZM107.449 17H108.709V26H107.161V19.682L102.175 26H100.915V17H102.463V23.318L107.449 17Z" fill="white"/>
</svg>
