<svg width="101" height="40" viewBox="0 0 101 40" fill="none" xmlns="http://www.w3.org/2000/svg">
<rect width="101" height="40" fill="#00868A"/>
<path d="M24.144 13.4H25.8V26H24.144V20.33H18.024V26H16.35V13.4H18.024V18.746H24.144V13.4ZM35.9305 24.866C35.0065 25.778 33.8845 26.234 32.5645 26.234C31.2445 26.234 30.1225 25.778 29.1985 24.866C28.2865 23.954 27.8305 22.832 27.8305 21.5C27.8305 20.168 28.2865 19.046 29.1985 18.134C30.1225 17.222 31.2445 16.766 32.5645 16.766C33.8845 16.766 35.0065 17.222 35.9305 18.134C36.8545 19.046 37.3165 20.168 37.3165 21.5C37.3165 22.832 36.8545 23.954 35.9305 24.866ZM32.5645 24.704C33.4645 24.704 34.2205 24.398 34.8325 23.786C35.4445 23.174 35.7505 22.412 35.7505 21.5C35.7505 20.588 35.4445 19.826 34.8325 19.214C34.2205 18.602 33.4645 18.296 32.5645 18.296C31.6765 18.296 30.9265 18.602 30.3145 19.214C29.7025 19.826 29.3965 20.588 29.3965 21.5C29.3965 22.412 29.7025 23.174 30.3145 23.786C30.9265 24.398 31.6765 24.704 32.5645 24.704ZM45.1566 21.374C46.0806 21.758 46.5426 22.454 46.5426 23.462C46.5426 24.206 46.2906 24.818 45.7866 25.298C45.2946 25.766 44.5866 26 43.6626 26H39.1626V17H43.3026C44.2026 17 44.8986 17.228 45.3906 17.684C45.8826 18.128 46.1286 18.716 46.1286 19.448C46.1286 20.312 45.8046 20.954 45.1566 21.374ZM43.2306 18.404H40.6926V20.762H43.2306C44.1426 20.762 44.5986 20.36 44.5986 19.556C44.5986 18.788 44.1426 18.404 43.2306 18.404ZM43.5726 24.578C44.0286 24.578 44.3766 24.47 44.6166 24.254C44.8686 24.038 44.9946 23.732 44.9946 23.336C44.9946 22.964 44.8686 22.676 44.6166 22.472C44.3766 22.256 44.0286 22.148 43.5726 22.148H40.6926V24.578H43.5726ZM55.8289 24.866C54.9049 25.778 53.7829 26.234 52.4629 26.234C51.1429 26.234 50.0209 25.778 49.0969 24.866C48.1849 23.954 47.7289 22.832 47.7289 21.5C47.7289 20.168 48.1849 19.046 49.0969 18.134C50.0209 17.222 51.1429 16.766 52.4629 16.766C53.7829 16.766 54.9049 17.222 55.8289 18.134C56.7529 19.046 57.2149 20.168 57.2149 21.5C57.2149 22.832 56.7529 23.954 55.8289 24.866ZM52.4629 24.704C53.3629 24.704 54.1189 24.398 54.7309 23.786C55.3429 23.174 55.6489 22.412 55.6489 21.5C55.6489 20.588 55.3429 19.826 54.7309 19.214C54.1189 18.602 53.3629 18.296 52.4629 18.296C51.5749 18.296 50.8249 18.602 50.2129 19.214C49.6009 19.826 49.2949 20.588 49.2949 21.5C49.2949 22.412 49.6009 23.174 50.2129 23.786C50.8249 24.398 51.5749 24.704 52.4629 24.704ZM63.291 26.234C61.935 26.234 60.807 25.784 59.907 24.884C59.007 23.972 58.557 22.844 58.557 21.5C58.557 20.156 59.007 19.034 59.907 18.134C60.807 17.222 61.935 16.766 63.291 16.766C64.179 16.766 64.977 16.982 65.685 17.414C66.393 17.834 66.921 18.404 67.269 19.124L65.955 19.88C65.727 19.4 65.373 19.016 64.893 18.728C64.425 18.44 63.891 18.296 63.291 18.296C62.391 18.296 61.635 18.602 61.023 19.214C60.423 19.826 60.123 20.588 60.123 21.5C60.123 22.4 60.423 23.156 61.023 23.768C61.635 24.38 62.391 24.686 63.291 24.686C63.891 24.686 64.431 24.548 64.911 24.272C65.391 23.984 65.757 23.6 66.009 23.12L67.341 23.894C66.957 24.602 66.405 25.172 65.685 25.604C64.965 26.024 64.167 26.234 63.291 26.234ZM75.4426 17V18.512H72.3826V26H70.8166V18.512H67.7386V17H75.4426ZM83.349 17H84.609V26H83.061V19.682L78.075 26H76.815V17H78.363V23.318L83.349 17Z" fill="white"/>
</svg>
