<svg width="87" height="87" xmlns="http://www.w3.org/2000/svg">
 <defs>
  <clipPath id="clip0_107_46">
   <rect id="svg_1" fill="white" height="87" width="87"/>
  </clipPath>
 </defs>
 <g>
  <title>background</title>
  <rect fill="none" id="canvas_background" height="402" width="582" y="-1" x="-1"/>
 </g>
 <g>
  <title>Layer 1</title>
  <g id="svg_2" clip-path="url(#clip0_107_46)">
   <path id="svg_3" fill="#4fbfa5" d="m77.9376,87l-68.87511,0c-4.99886,0 -9.06249,-4.0673 -9.06249,-9.0624l0,-68.87511c0,-4.99524 4.06363,-9.06249 9.06249,-9.06249l68.87511,0c4.9988,0 9.0624,4.06725 9.0624,9.06249l0,68.87511c0,4.9951 -4.0636,9.0624 -9.0624,9.0624zm-68.87511,-83.37501c-2.99786,0 -5.4375,2.43964 -5.4375,5.4375l0,68.87511c0,2.9978 2.43964,5.4375 5.4375,5.4375l68.87511,0c2.9978,0 5.4375,-2.4397 5.4375,-5.4375l0,-68.87511c0,-2.99786 -2.4397,-5.4375 -5.4375,-5.4375l-68.87511,0z"/>
   <path stroke="null" id="svg_4" fill="#4fbfa5" d="m59.8119,29.0004l-32.625,0c-1.0005,0 -1.8124,-0.8121 -1.8124,-1.8126c0,-1.0005 0.8119,-1.8126 1.8124,-1.8126l32.625,0c1.0005,0 1.8126,0.8121 1.8126,1.8126c0,1.0005 -0.8121,1.8126 -1.8126,1.8126z"/>
   <path id="svg_5" fill="#4fbfa5" d="m59.8119,45.3129l-32.625,0c-1.0005,0 -1.8124,-0.8121 -1.8124,-1.8126c0,-1.0005 0.8119,-1.8126 1.8124,-1.8126l32.625,0c1.0005,0 1.8126,0.8121 1.8126,1.8126c0,1.0005 -0.8121,1.8126 -1.8126,1.8126z"/>
   <path id="svg_6" fill="#4fbfa5" d="m59.8119,61.6254l-32.625,0c-1.0005,0 -1.8124,-0.8121 -1.8124,-1.8126c0,-1.0005 0.8119,-1.8126 1.8124,-1.8126l32.625,0c1.0005,0 1.8126,0.8121 1.8126,1.8126c0,1.0005 -0.8121,1.8126 -1.8126,1.8126z"/>
  </g>
 </g>
</svg>